<?xml version="1.0" encoding="UTF-8"?>
<svg id="Layer_1" data-name="Layer 1" xmlns="http://www.w3.org/2000/svg" xmlns:xlink="http://www.w3.org/1999/xlink" viewBox="0 0 7488 3152">
  <defs>
    <style>
      .cls-1 {
        fill: #2f3d97;
      }

      .cls-2 {
        fill: url(#radial-gradient);
      }

      .cls-3 {
        fill: #27a8ea;
      }
    </style>
    <radialGradient id="radial-gradient" cx="1318.17" cy="1680.8" fx="1279.3" fy="1680.8" r="1463.34" gradientTransform="translate(-3492.56 -324.24) rotate(-52.72) scale(1 3)" gradientUnits="userSpaceOnUse">
      <stop offset="0" stop-color="#29aae1"/>
      <stop offset=".35" stop-color="#0095d9"/>
      <stop offset="1" stop-color="#2f3d98"/>
    </radialGradient>
  </defs>
  <polygon class="cls-1" points="3217.25 1029.02 3217.25 572.56 4236.78 572.56 4428.28 161.89 2805.31 161.89 2805.31 2262.31 3217.25 2262.31 3217.25 1439.69 3832.43 1439.69 4023.93 1029.02 3217.25 1029.02"/>
  <path class="cls-1" d="m6567.04,1019.76c-231.65-108.96-384.46-150.29-384.46-270.51,0-103.98,112.73-191.62,264.23-191.62,112.73,0,229.18,48.83,289.32,169.05l299.33-209.13c-91.46-244.22-319.38-358.16-594.88-358.16-370.72,0-666.28,230.4-666.28,579.81,0,321.85,249.24,445.85,475.91,558.58,211.64,105.19,453.34,221.65,453.34,369.42,0,107.7-127.72,185.38-318.09,185.38-174.08,0-303.09-65.16-391.99-207.91l-324.37,227.93c135.26,250.46,379.47,388.23,710.08,388.23,432.07,0,732.65-234.17,732.65-602.38,0-310.59-210.42-480.9-544.8-638.68Z"/>
  <path class="cls-1" d="m5040.06,1426.36c-34.42,12.56-67.63,24.25-100.04,35.13l-171.52-377.25-248.82,544.38-159.13,348.57-130.11,284.17h-442.04L4760.91,174.92h12.6l534.71,1145.71c-101.51,42.38-187.85,76.42-268.17,105.74Z"/>
  <path class="cls-1" d="m5747.29,2261.36h-443.29l-128.85-284.17-131.45-287.98c54.15-19.14,108-40.41,160.8-63.57,68.26-29.94,135.17-63.11,199.83-99.16l342.96,734.87Z"/>
  <path class="cls-3" d="m5857.74,1116.49c-116.25,148.24-230.54,223.35-388.96,323.52-1.38.88-2.81,1.76-4.19,2.64-33.21,20.9-67.08,41-101.55,60.22-64.53,36.1-131.07,69.14-198.99,98.91-53.1,23.28-106.99,44.56-161.39,63.65-24.04,8.46-48.16,16.5-72.4,24.12l-39.78,15.66c14.66,47.24,35.38,92.21,51.59,138.86,13.32,38.4,31.28,93.09,41.08,145.89,7.33,39.66,10.09,78.18,2.76,107.91-16,65.32-75.75,121.61-132.16,153.93l-37.02,17.25c-5.36-87.48-27.97-172.57-50.38-256.82l-.34-1.01-46.77-147.65-94.89-271.77c62.94-12.27,125.25-28.48,186.26-46.65,40.03-11.93,80.02-24.71,119.93-38.23,32.5-10.93,64.91-22.4,97.28-34.21,91.41-33.33,182.03-69.64,271.23-106.91,19.43-8.12,38.78-16.29,58.08-24.46.59-.25,1.13-.5,1.72-.75,141.12-59.8,194.72-70.6,332.53-135.89,40.66-19.26,134.56-67.03,166.35-88.22Z"/>
  <g>
    <path class="cls-1" d="m2851.77,2844.47v46.04h65.17v26.92h-65.17v72.97h-27.03v-172.86h102.56v26.92h-75.53Z"/>
    <path class="cls-1" d="m2953.18,2817.97h27.03v172.22h-27.03v-172.22Z"/>
    <path class="cls-1" d="m3007.79,2959.96l21.37-15.28c7.69,13.46,22.01,21.15,38.57,21.15,19.34,0,33.97-9.3,33.97-22.44,0-15.92-22.65-25.53-42.73-34.19-20.19-8.97-42.63-19.44-42.63-46.47s24.46-47.86,55.45-47.86c24.57,0,42.95,11.86,50,30.77l-20.08,13.89c-5.34-11.64-17.2-18.16-29.7-18.16-15.81,0-28.42,9.83-28.42,22.01,0,13.46,15.92,18.27,36.86,27.24,27.24,11.97,48.4,25.1,48.4,52.24,0,30.55-26.5,50.21-61.43,50.21-28.31,0-49.78-13.25-59.61-33.12Z"/>
    <path class="cls-1" d="m3148.2,2904.19c0-48.5,40.49-89.21,88.89-89.21,22.33.32,42.95,9.83,59.83,26.28l-15.71,21.26c-12.07-12.08-27.78-20.09-44.66-20.09-31.2,0-61,27.35-61,61.86s30.23,61.54,61.11,61.54c17.63,0,32.8-8.76,44.66-20.51l15.6,21.79c-14.85,14.64-33.76,25.85-59.4,25.85-48.82,0-89.31-40.17-89.31-88.78Z"/>
    <path class="cls-1" d="m3431.25,2964.02h-81.52l-11.75,26.18h-29.27l80.98-175.75h1.6l80.98,175.75h-29.27l-11.75-26.18Zm-10.47-23.18l-30.23-67.3-30.34,67.3h60.57Z"/>
    <path class="cls-1" d="m3599.66,2963.27v26.92h-103.84v-172.22h27.03v145.3h76.81Z"/>
    <path class="cls-1" d="m3735.47,2964.02h-81.52l-11.75,26.18h-29.27l80.98-175.75h1.6l80.98,175.75h-29.27l-11.75-26.18Zm-10.47-23.18l-30.23-67.3-30.34,67.3h60.58Z"/>
    <path class="cls-1" d="m3775.79,2904.19c0-48.5,40.49-89.21,88.89-89.21,22.33.32,42.95,9.83,59.83,26.28l-15.7,21.26c-12.07-12.08-27.78-20.09-44.66-20.09-31.2,0-61,27.35-61,61.86s30.23,61.54,61.11,61.54c17.63,0,32.8-8.76,44.66-20.51l15.6,21.79c-14.85,14.64-33.76,25.85-59.4,25.85-48.82,0-89.31-40.17-89.31-88.78Z"/>
    <path class="cls-1" d="m4058.3,2844.79h-46.15v145.4h-27.14v-145.4h-46.15v-26.82h119.44v26.82Z"/>
    <path class="cls-1" d="m4074.24,2959.96l21.37-15.28c7.69,13.46,22.01,21.15,38.57,21.15,19.34,0,33.97-9.3,33.97-22.44,0-15.92-22.65-25.53-42.73-34.19-20.19-8.97-42.63-19.44-42.63-46.47s24.46-47.86,55.45-47.86c24.57,0,42.95,11.86,50,30.77l-20.08,13.89c-5.34-11.64-17.2-18.16-29.7-18.16-15.81,0-28.42,9.83-28.42,22.01,0,13.46,15.92,18.27,36.86,27.24,27.24,11.97,48.4,25.1,48.4,52.24,0,30.55-26.5,50.21-61.43,50.21-28.31,0-49.79-13.25-59.62-33.12Z"/>
    <path class="cls-1" d="m4399.81,2964.02h-81.52l-11.75,26.18h-29.27l80.98-175.75h1.6l80.98,175.75h-29.27l-11.75-26.18Zm-10.47-23.18l-30.24-67.3-30.34,67.3h60.58Z"/>
    <path class="cls-1" d="m4440.13,2904.19c0-48.5,40.49-89.21,88.88-89.21,22.33.32,42.95,9.83,59.83,26.28l-15.7,21.26c-12.07-12.08-27.78-20.09-44.66-20.09-31.2,0-61,27.35-61,61.86s30.23,61.54,61.11,61.54c17.63,0,32.8-8.76,44.66-20.51l15.6,21.79c-14.85,14.64-33.76,25.85-59.4,25.85-48.82,0-89.31-40.17-89.31-88.78Z"/>
    <path class="cls-1" d="m4599.13,2904.19c0-48.5,40.49-89.21,88.89-89.21,22.33.32,42.95,9.83,59.83,26.28l-15.7,21.26c-12.07-12.08-27.78-20.09-44.66-20.09-31.19,0-61,27.35-61,61.86s30.23,61.54,61.11,61.54c17.63,0,32.8-8.76,44.66-20.51l15.6,21.79c-14.85,14.64-33.76,25.85-59.4,25.85-48.83,0-89.32-40.17-89.32-88.78Z"/>
    <path class="cls-1" d="m4758.14,2904.3c0-49.15,39.96-89.32,88.99-89.32s89.1,40.17,89.1,89.32-40.17,88.67-89.21,88.67-88.89-39.96-88.89-88.67Zm150.74-.22c0-34.08-27.88-61.86-61.86-61.86s-61.64,27.78-61.64,61.86,27.67,61.54,61.64,61.54,61.86-27.67,61.86-61.54Z"/>
    <path class="cls-1" d="m4963.84,2924.92v-106.95h27.14v106.84c0,23.82,16.77,41.24,37.82,41.24s38.03-17.42,38.03-41.24v-106.84h27.24v106.95c0,39.53-28.52,68.48-65.17,68.48s-65.06-28.95-65.06-68.48Z"/>
    <path class="cls-1" d="m5268.36,2817.55v175.64h-1.28l-110.15-115.06v112.28h-27.03v-175.42h1.39l109.93,114.85v-112.28h27.13Z"/>
    <path class="cls-1" d="m5413.8,2844.79h-46.15v145.4h-27.13v-145.4h-46.15v-26.82h119.44v26.82Z"/>
    <path class="cls-1" d="m5439.69,2817.97h27.03v172.22h-27.03v-172.22Z"/>
    <path class="cls-1" d="m5642.69,2817.55v175.64h-1.28l-110.15-115.06v112.28h-27.03v-175.42h1.39l109.93,114.85v-112.28h27.14Z"/>
    <path class="cls-1" d="m5843.79,2909.64c0,51.17-37.18,83.44-81.94,83.44-50.1,0-89.85-39.95-89.85-88.78s39.96-89.21,88.89-89.21c21.69.11,46.48,10.58,62.71,26.39l-15.06,22.43c-13.46-13.25-31.62-21.58-47.97-21.58-31.41,0-61.11,26.28-61.11,61.97,0,33.76,26.81,61.54,63.57,61.54,29.59,0,51.81-18.06,51.81-44.34v-.54h-53.31v-24.79h81.52c.43,3.95.74,8.65.74,13.46Z"/>
    <path class="cls-1" d="m5931.67,2959.96l21.37-15.28c7.69,13.46,22.01,21.15,38.57,21.15,19.33,0,33.97-9.3,33.97-22.44,0-15.92-22.65-25.53-42.73-34.19-20.19-8.97-42.63-19.44-42.63-46.47s24.47-47.86,55.45-47.86c24.57,0,42.95,11.86,50,30.77l-20.08,13.89c-5.34-11.64-17.2-18.16-29.7-18.16-15.81,0-28.42,9.83-28.42,22.01,0,13.46,15.92,18.27,36.86,27.24,27.24,11.97,48.4,25.1,48.4,52.24,0,30.55-26.49,50.21-61.43,50.21-28.31,0-49.78-13.25-59.61-33.12Z"/>
    <path class="cls-1" d="m6107.33,2844.58v44.12h65.17v26.92h-65.17v47.65h75.53v26.92h-102.56v-172.22h102.56v26.61h-75.53Z"/>
    <path class="cls-1" d="m6310.03,2990.19l-46.37-66.67h-21.15v66.67h-27.03l-.11-172.22h53.52c32.05,0,58.34,24.68,58.34,55.34,0,22.22-14.32,41.56-34.08,47.97l50.11,68.91h-33.23Zm-40.49-89.1c16.24.11,29.81-13.04,29.81-28.42s-13.78-27.88-29.81-27.88h-27.13v56.3h27.13Z"/>
    <path class="cls-1" d="m6499.38,2817.97l-79.49,175.75h-1.82l-79.17-175.75h28.74l51.28,116.56,51.49-116.56h28.95Z"/>
    <path class="cls-1" d="m6522.91,2817.97h27.03v172.22h-27.03v-172.22Z"/>
    <path class="cls-1" d="m6579.23,2904.19c0-48.5,40.49-89.21,88.89-89.21,22.33.32,42.95,9.83,59.83,26.28l-15.7,21.26c-12.07-12.08-27.78-20.09-44.66-20.09-31.19,0-61,27.35-61,61.86s30.23,61.54,61.11,61.54c17.63,0,32.8-8.76,44.66-20.51l15.6,21.79c-14.85,14.64-33.76,25.85-59.4,25.85-48.83,0-89.32-40.17-89.32-88.78Z"/>
    <path class="cls-1" d="m6780.86,2844.58v44.12h65.17v26.92h-65.17v47.65h75.54v26.92h-102.56v-172.22h102.56v26.61h-75.54Z"/>
    <path class="cls-1" d="m6878.97,2959.96l21.37-15.28c7.69,13.46,22,21.15,38.56,21.15,19.34,0,33.97-9.3,33.97-22.44,0-15.92-22.65-25.53-42.73-34.19-20.19-8.97-42.63-19.44-42.63-46.47s24.47-47.86,55.45-47.86c24.57,0,42.95,11.86,50,30.77l-20.09,13.89c-5.34-11.64-17.2-18.16-29.7-18.16-15.81,0-28.42,9.83-28.42,22.01,0,13.46,15.92,18.27,36.86,27.24,27.24,11.97,48.39,25.1,48.39,52.24,0,30.55-26.49,50.21-61.43,50.21-28.31,0-49.78-13.25-59.62-33.12Z"/>
  </g>
  <g>
    <path class="cls-3" d="m2863.88,2479.02c-5.14-3.97-9.69-7.83-13.66-11.56-3.97-3.73-7.36-7-10.16-9.81,3.5-3.51,7.18-7.18,11.04-11.03,3.85-3.86,7.88-8.24,12.09-13.14,1.63,1.87,4.21,4.61,7.71,8.24,3.5,3.62,8.06,8,13.66,13.14-2.34,3.74-5.25,7.59-8.76,11.56-3.5,3.98-7.48,8.18-11.91,12.61Zm50.45-4.91c-4.91-3.97-9.34-7.76-13.31-11.39-3.97-3.62-7.36-7.06-10.16-10.34,2.33-2.1,5.37-5.13,9.11-9.1,3.73-3.97,8.29-8.87,13.66-14.71,1.63,1.64,4.32,4.2,8.06,7.7,3.73,3.5,8.41,8.06,14.01,13.66-5.14,7.48-12.26,15.54-21.37,24.18Z"/>
    <path class="cls-3" d="m2971.09,2641.57c-14.01,0-25.4-2.57-34.16-7.7-8.76-5.14-13.84-12.26-15.24-21.37l-2.1-9.11-12.96,25.58c-7.24-.7-13.2-1.34-17.87-1.92-4.68-.58-8.65-1.34-11.91-2.28-3.27-.93-6.78-1.98-10.51-3.15-4.68-1.87-9.63-4.26-14.89-7.19-5.26-2.91-9.81-6.07-13.66-9.45-3.85-3.39-5.78-6.49-5.78-9.28,0-1.86.76-5.08,2.28-9.63,1.52-4.56,3.27-9.23,5.25-14.02,1.98-4.78,3.79-8.46,5.43-11.03,1.86-3.73,5.25-7.82,10.16-12.26,6.31-5.84,13.96-11.68,22.95-17.52,8.99-5.83,17.81-10.51,26.45-14.01l-1.4-10.86c3.73-3.27,7.18-6.08,10.34-8.41,3.15-2.33,6.25-4.5,9.29-6.49,3.03-1.98,6.19-3.91,9.46-5.78.23,19.15.58,38.31,1.05,57.46.47,19.15.82,38.31,1.05,57.46,10.98,6.31,23.24,9.46,36.79,9.46,2.1,0,3.15.94,3.15,2.81v25.93c0,1.86-1.05,2.8-3.15,2.8Zm-53.25-45.2c-1.4-7.93-2.86-16.4-4.38-25.4-1.52-8.99-3.21-18.27-5.08-27.86-25.69,8.65-44.61,19.97-56.75,33.99,6.77,5.37,13.72,9.34,20.85,11.91,7.12,2.57,14.42,4.33,21.9,5.25,3.73.47,7.59.88,11.56,1.23,3.97.35,7.94.65,11.91.88Z"/>
    <path class="cls-3" d="m3018.39,2712.69c-5.14-3.98-9.69-7.83-13.66-11.56-3.98-3.74-7.36-7.01-10.16-9.81,3.5-3.51,7.18-7.18,11.04-11.04,3.85-3.85,7.88-8.23,12.09-13.13,1.63,1.86,4.21,4.61,7.71,8.24,3.5,3.61,8.06,8,13.66,13.13-2.34,3.73-5.25,7.59-8.76,11.56-3.5,3.97-7.48,8.17-11.91,12.61Zm50.45-4.91c-4.91-3.98-9.34-7.77-13.31-11.38-3.97-3.62-7.36-7.07-10.16-10.34,2.33-2.1,5.37-5.14,9.11-9.11,3.73-3.97,8.29-8.87,13.66-14.71,1.63,1.64,4.32,4.2,8.06,7.71,3.73,3.5,8.41,8.06,14.01,13.66-5.14,7.48-12.26,15.53-21.37,24.18Z"/>
    <path class="cls-3" d="m2975.29,2641.57c-1.87,0-2.8-.93-2.8-2.8v-25.93c0-1.86.94-2.81,2.8-2.81,13.31,0,24.93-.52,34.86-1.58,9.92-1.05,17.22-3.09,21.89-6.13,3.27-1.87,6.48-5.37,9.63-10.51,3.15-5.14,7.65-13.32,13.49-24.53,2.1-3.73,4.2-6.25,6.31-7.53,2.1-1.28,4.55-1.92,7.36-1.92,3.73,0,7.24,1.17,10.51,3.5-1.64,3.98-3.56,8.53-5.78,13.67-2.22,5.14-4.26,9.86-6.13,14.18-1.87,4.33-3.39,7.3-4.56,8.94,7.24,4.2,14.13,7.24,20.67,9.1,6.54,1.87,13.54,2.81,21.02,2.81,1.87,0,2.8.94,2.8,2.81v25.93c0,1.86-.94,2.8-2.8,2.8-20.32,0-38.31-7.24-53.95-21.72l-4.56,6.66c-2.57,2.81-7.42,5.38-14.54,7.71-7.13,2.33-15.59,4.15-25.4,5.43-9.81,1.28-20.09,1.92-30.83,1.92Z"/>
    <path class="cls-3" d="m3166.23,2716.55c-10.98-8.41-19.62-16.23-25.92-23.47,5.84-5.84,10.8-10.92,14.89-15.24,4.08-4.33,7.53-8.01,10.34-11.04,3.27,3.51,6.89,7.24,10.86,11.21,3.97,3.97,8.29,8.06,12.96,12.26-2.8,3.74-6.13,7.83-9.98,12.27-3.85,4.43-8.23,9.1-13.14,14.01Z"/>
    <path class="cls-3" d="m3108.42,2641.57c-1.87,0-2.8-.93-2.8-2.8v-25.93c0-1.86.94-2.81,2.8-2.81,16.35,0,28.26-3.15,35.74-9.46,2.33-1.86,5.02-5.42,8.06-10.68,3.03-5.26,7.12-12.78,12.26-22.6,2.1-3.73,4.2-6.25,6.31-7.53,2.1-1.28,4.55-1.92,7.36-1.92,3.73,0,7.24,1.17,10.51,3.5-2.57,6.08-5.2,12.2-7.88,18.39-2.69,6.19-5.55,12.32-8.58,18.39,7.24,4.2,14.13,7.24,20.67,9.1,6.54,1.87,13.54,2.81,21.02,2.81,1.87,0,2.8.94,2.8,2.81v25.93c0,1.86-.94,2.8-2.8,2.8-20.32,0-38.31-7.24-53.95-21.72-.94,1.64-1.93,3.21-2.98,4.74-1.05,1.52-2.16,2.86-3.33,4.02-2.57,3.28-8.18,6.26-16.82,8.94-8.65,2.68-18.1,4.02-28.38,4.02Z"/>
    <path class="cls-3" d="m3297.26,2642.63c-6.31,0-13.43-1.06-21.37-3.16-7.94-2.1-14.71-4.67-20.32-7.7-3.74,2.81-9.06,5.14-15.94,7.01-6.89,1.86-14.19,2.8-21.89,2.8-1.87,0-2.8-.93-2.8-2.8v-25.93c0-1.86.94-2.81,2.8-2.81,7.94,0,14.24-.64,18.92-1.93,4.67-1.28,8.76-3.44,12.26-6.48,2.57-1.86,4.56-3.79,5.96-5.78,1.4-1.98,3.03-4.49,4.91-7.53,1.87-3.03,4.32-7.12,7.36-12.26,1.4-2.1,3.09-3.73,5.08-4.91,1.98-1.16,4.38-1.75,7.18-1.75,3.27,0,6.31.94,9.11,2.81-3.5,9.11-6.54,16.64-9.11,22.6-2.57,5.95-4.56,10.22-5.96,12.78,2.33.7,5.96,1.46,10.86,2.28,4.91.82,10.27,1.23,16.11,1.23,5.14,0,9.87-.35,14.19-1.06,4.32-.7,8.46-1.63,12.44-2.81,1.63-2.1,3.38-5.83,5.25-11.2,1.87-5.37,3.85-11.33,5.96-17.87,2.1-6.53,4.32-12.49,6.66-17.87,1.63-4.2,3.56-7.06,5.78-8.58,2.22-1.51,5.31-2.27,9.28-2.27,3.73,0,6.89.93,9.46,2.8-1.87,4.91-4.09,11.1-6.66,18.57-2.57,7.48-5.38,16.24-8.41,26.28,7.47,3.27,14.48,5.91,21.02,7.88,6.53,1.99,13.19,3.45,19.97,4.38,6.77.94,14.13,1.64,22.07,2.1-1.64-4.67-3.74-10.09-6.31-16.28-2.57-6.19-5.02-12.32-7.36-18.39-2.34-6.08-4.32-11.51-5.95-16.29-1.64-4.78-2.45-8.24-2.45-10.34,0-5.37,2.39-10.91,7.18-16.64,4.78-5.72,11.04-10.68,18.75-14.89,1.86,10.98,3.91,21.43,6.13,31.36,2.22,9.93,4.08,18.92,5.6,26.97,1.52,8.06,2.28,14.89,2.28,20.5,0,2.81-.7,7.01-2.1,12.61-1.4,5.6-3.15,11.39-5.25,17.34-2.1,5.96-4.32,11.04-6.66,15.25-14.72,0-28.15-1.23-40.29-3.68-12.15-2.45-24.52-6.6-37.14-12.44-.94,2.34-1.99,4.56-3.15,6.66-1.4,2.1-4.44,3.85-9.11,5.26-4.67,1.4-10.1,2.4-16.29,2.98-6.19.58-12.21,1-18.04,1.23Z"/>
    <path class="cls-3" d="m3556.16,2641.57c-10.75,0-19.97-1.58-27.68-4.73-7.71-3.16-13.72-7.59-18.04-13.32-4.32-5.72-6.95-12.32-7.88-19.79-.47-6.07-1.17-13.49-2.1-22.25-.93-8.76-1.93-18.68-2.98-29.78-1.05-11.09-2.16-23.24-3.33-36.44-1.17-13.19-2.34-27.15-3.5-41.87-1.17-14.71-2.45-30.13-3.85-46.24,4.43-3.5,9.11-7.06,14.01-10.69,4.91-3.62,10.16-6.94,15.76-9.98.7,17.99,1.17,35.79,1.4,53.42.23,17.64.53,35.97.88,55,.35,19.04.99,39.41,1.93,61.14l1.05,24.87c5.14,3.28,10.51,5.61,16.12,7.01,5.61,1.4,11.68,2.1,18.22,2.1,1.87,0,2.8.94,2.8,2.81v25.93c0,1.86-.94,2.8-2.8,2.8Z"/>
    <path class="cls-3" d="m3553.01,2641.57c-1.87,0-2.8-.93-2.8-2.8v-25.93c0-1.86.94-2.81,2.8-2.81,20.32,0,37.84-.93,52.55-2.81,14.72-1.86,28.26-5.25,40.64-10.16,8.17-3.26,15.41-5.9,21.72-7.88,6.31-1.98,11.56-3.44,15.76-4.38-3.97-2.1-8-4.38-12.09-6.83-4.09-2.45-8.23-5.09-12.44-7.88-8.41-6.07-15.47-10.4-21.2-12.96-5.73-2.57-11.51-3.85-17.34-3.85-7.24,0-13.55,1-18.92,2.98-5.38,1.99-12.26,5.55-20.67,10.68-1.64-1.86-3.04-4.2-4.2-7-1.17-2.81-1.75-5.84-1.75-9.11,0-9.34,4.09-16.87,12.26-22.6,8.17-5.72,18.8-8.59,31.88-8.59,7.47,0,14.89,1.41,22.25,4.21,7.36,2.8,15.82,7.59,25.4,14.36,11.68,7.7,21.84,13.72,30.48,18.04,8.64,4.33,17.87,7.65,27.68,9.99,4.91,1.17,10.68,2.1,17.34,2.8,6.66.7,14.3,1.06,22.95,1.06l-14.01,26.97c-1.87-.23-4.5-.4-7.88-.52-3.39-.11-6.78-.35-10.16-.7-3.39-.35-6.36-.64-8.93-.88,2.57,3.5,5.25,6.25,8.06,8.24,2.8,1.99,6.42,3.44,10.86,4.38,4.44.7,10.45,1.28,18.04,1.75,7.59.47,16.52.7,26.8.7,2.1,0,3.15.94,3.15,2.81v25.93c0,1.86-1.05,2.8-3.15,2.8-10.28-.23-19.79-.81-28.55-1.75-8.76-.93-16.47-2.45-23.12-4.56-6.66-2.1-12.09-4.78-16.29-8.06-3.74-3.03-6.95-7.06-9.63-12.09-2.69-5.02-5.2-10.45-7.53-16.29-4.44,1.18-8.64,2.81-12.61,4.91-3.97,2.1-8.12,4.44-12.44,7.01-4.32,2.57-9.05,5.37-14.19,8.41-8.41,4.9-16.41,8.82-24,11.74-7.59,2.92-15.48,5.14-23.65,6.66-8.18,1.52-17.34,2.57-27.5,3.15-10.16.59-22.02.88-35.56.88Z"/>
    <path class="cls-3" d="m3895.64,2642.63c-12.38,0-24.06-1.06-35.03-3.16-10.98-2.1-20.9-5.02-29.78-8.76-9.81,4.2-18.04,7.07-24.7,8.59-6.66,1.52-13.61,2.27-20.84,2.27-1.87,0-2.8-.93-2.8-2.8v-25.93c0-1.86.93-2.81,2.8-2.81,3.73,0,7.3-.29,10.69-.88,3.38-.58,6.95-1.34,10.68-2.27-.7-1.41-1.17-2.81-1.4-4.2-.24-1.41-.35-2.81-.35-4.21.46-7,2.33-14.65,5.6-22.94,3.27-8.29,7.65-16.23,13.14-23.82,5.48-7.59,11.5-13.95,18.04-19.1,10.04-8.17,19.85-12.26,29.43-12.26,3.5,0,6.6,1.82,9.28,5.43,2.68,3.62,5.43,8.24,8.23,13.84,1.63,3.27,3.33,7.07,5.08,11.39,1.75,4.33,3.56,9.05,5.43,14.19,2.8,7.94,5.78,15.12,8.93,21.54,3.15,6.43,6.48,11.74,9.98,15.95,4.43,4.9,9.11,7.35,14.01,7.35,2.57,0,3.85,1.17,3.85,3.5v24.18c0,2.58-1.28,3.85-3.85,3.85-11.68,0-22.31-4.9-31.88-14.71l-4.56,15.77Zm-4.9-29.08c-4.68-7.47-8.76-16.69-12.26-27.68-3.5-10.98-5.95-22.65-7.36-35.03-6.08,2.57-12.26,6.08-18.57,10.51-6.31,4.44-11.97,9.23-16.99,14.36-5.02,5.14-8.93,10.16-11.74,15.07,7.24,6.08,16.41,10.98,27.5,14.71,11.09,3.74,24.23,6.43,39.41,8.06Z"/>
    <path class="cls-3" d="m3929.62,2641.57c-1.87,0-2.8-.93-2.8-2.8v-25.93c0-1.86.93-2.81,2.8-2.81,12.84,0,25.58-3.03,38.19-9.11-.7-8.17-1.4-16.29-2.1-24.35-.7-8.06-1.52-15.94-2.45-23.64-1.64-17.04-3.8-36.03-6.48-56.93-2.69-20.9-5.9-43.85-9.63-68.84,4.2-3.74,8.76-7.3,13.66-10.69,4.9-3.38,10.16-6.71,15.76-9.98.47,14.71,1.11,30.43,1.93,47.12.82,16.7,1.81,34.39,2.98,53.08.93,16.35,1.58,31.59,1.93,45.72.35,14.13.64,27.15.88,39.06,0,5.37-1.17,11.51-3.5,18.39-2.34,6.89-5.49,13.49-9.46,19.79-2.1,3.74-6.78,6.66-14.01,8.76-7.24,2.1-16.47,3.15-27.68,3.15Z"/>
    <path class="cls-3" d="m4050.49,2641.57c-.7-21.72-1.4-41.87-2.1-60.43-.7-18.57-1.52-36.08-2.45-52.55-.94-16.46-1.99-32.18-3.15-47.13-1.17-14.94-2.45-29.66-3.85-44.14-.47-6.31.29-11.56,2.28-15.76,1.98-4.2,5.14-7.59,9.46-10.17,4.32-2.57,9.75-4.2,16.29-4.9,1.17,5.37,2.92,11.79,5.25,19.27,2.33,7.48,4.91,15.07,7.71,22.77l-10.51,8.41c.7,15.88,1.17,32.88,1.4,50.98.23,18.1.17,37.89-.18,59.38-.35,21.49-1,45.32-1.93,71.47l-18.22,2.8Z"/>
    <path class="cls-3" d="m4325.16,2529.46c-5.14-3.97-9.7-7.83-13.66-11.56-3.97-3.73-7.36-7-10.16-9.81,3.5-3.51,7.18-7.18,11.04-11.03,3.85-3.86,7.88-8.24,12.09-13.14,1.63,1.87,4.2,4.61,7.71,8.24,3.5,3.62,8.06,8,13.66,13.14-2.34,3.74-5.26,7.59-8.76,11.56-3.5,3.97-7.48,8.18-11.91,12.61Zm50.45-4.91c-4.91-3.97-9.34-7.76-13.31-11.38-3.97-3.62-7.36-7.06-10.16-10.34,2.33-2.1,5.37-5.13,9.11-9.1,3.73-3.97,8.29-8.87,13.66-14.71,1.63,1.64,4.32,4.2,8.06,7.7,3.73,3.5,8.41,8.06,14.01,13.66-5.14,7.48-12.26,15.54-21.37,24.18Z"/>
    <path class="cls-3" d="m4333.57,2642.63c-27.8,0-48.99-5.43-63.59-16.29-14.6-10.86-21.9-26.92-21.9-48.17,0-13.31,1.75-26.16,5.25-38.54h13.66c-.24.94-.47,3.39-.7,7.36-.24,3.97-.35,7.24-.35,9.81,0,13.55,2.57,24,7.71,31.36,5.13,7.35,13.31,13.02,24.52,16.99,5.6,1.87,12.14,3.33,19.62,4.38,7.47,1.05,15.76,1.58,24.87,1.58,21.25,0,42.1-2.1,62.54-6.31,20.43-4.21,38.71-10.17,54.83-17.87-1.64-4.91-3.74-10.62-6.31-17.17-2.57-6.53-5.25-13.08-8.06-19.62-2.34-5.6-4.09-10.27-5.25-14.01-1.17-3.74-1.75-6.77-1.75-9.11,0-5.14,2.33-10.57,7.01-16.29,4.67-5.72,10.97-10.8,18.92-15.24,3.03,13.54,5.49,25.28,7.36,35.21,1.86,9.93,3.33,18.34,4.38,25.22,1.05,6.89,1.58,12.67,1.58,17.34s-1.11,9.99-3.33,16.64c-2.22,6.66-5.31,13.84-9.28,21.54-10.28,6.31-22.25,11.8-35.91,16.47-13.66,4.67-28.55,8.29-44.67,10.86-16.11,2.57-33.17,3.85-51.15,3.85Z"/>
    <path class="cls-3" d="m4600.88,2641.57c-10.75,0-19.97-1.58-27.68-4.73-7.71-3.16-13.72-7.59-18.04-13.32-4.33-5.72-6.95-12.32-7.88-19.79-.47-6.07-1.17-13.49-2.1-22.25-.94-8.76-1.93-18.68-2.98-29.78-1.05-11.09-2.16-23.24-3.33-36.44-1.17-13.19-2.34-27.15-3.5-41.87-1.17-14.71-2.45-30.13-3.85-46.24,4.43-3.5,9.11-7.06,14.01-10.69,4.9-3.62,10.16-6.94,15.76-9.98.7,17.99,1.17,35.79,1.4,53.42.23,17.64.52,35.97.88,55,.35,19.04.99,39.41,1.93,61.14l1.05,24.87c5.14,3.28,10.51,5.61,16.12,7.01,5.61,1.4,11.68,2.1,18.22,2.1,1.86,0,2.8.94,2.8,2.81v25.93c0,1.86-.94,2.8-2.8,2.8Z"/>
    <path class="cls-3" d="m4724.2,2642.63c-9.58,0-19.56-.88-29.95-2.63-10.4-1.75-20.38-4.14-29.95-7.18-9.58-3.03-18.1-6.66-25.57-10.86-5.37,7.01-11.27,12.04-17.69,15.07-6.43,3.04-14.19,4.56-23.3,4.56-1.87,0-2.8-.93-2.8-2.8v-25.93c0-1.86.93-2.81,2.8-2.81,9.11,0,16.87-2.16,23.3-6.48,6.42-4.32,11.85-10.8,16.29-19.45,3.73-7,6.83-12.96,9.28-17.86,2.45-4.91,4.73-9.23,6.83-12.96,2.1-3.74,4.56-7.36,7.36-10.86,5.83-7.94,11.61-13.6,17.34-17,5.72-3.38,11.97-5.08,18.75-5.08,7.23,0,14.48,4.27,21.72,12.79,7.24,8.52,13.08,19.56,17.52,33.11,4.67,13.31,7.01,26.27,7.01,38.88,0,6.78-1.57,13.44-4.73,19.97-3.16,6.54-7.88,12.38-14.19,17.52Zm-9.11-30.48c-.47-10.04-2.16-19.79-5.08-29.26-2.92-9.45-6.25-16.64-9.98-21.54-2.81-4.2-5.73-6.31-8.76-6.31-7.48,0-14.37,4.2-20.67,12.61-1.87,2.58-4.15,6.13-6.83,10.68-2.69,4.56-5.78,10.34-9.28,17.35,7.93,3.97,16.99,7.35,27.15,10.16,10.16,2.81,21.31,4.91,33.46,6.31Z"/>
    <path class="cls-3" d="m4822.64,2642.63c-29.43,0-44.14-7.94-44.14-23.82,0-4.2.7-8.24,2.1-12.09,1.4-3.85,3.27-7.06,5.61-9.63,5.83,4.68,12.49,8.18,19.97,10.51,7.47,2.34,16.7,3.51,27.68,3.51,7.23,0,14.71-.58,22.42-1.76,7.7-1.16,15.65-2.8,23.82-4.9-5.84-10.51-11.16-21.08-15.94-31.71-4.79-10.62-8.53-20.32-11.21-29.08-2.69-8.76-4.03-15.25-4.03-19.45,0-6.77,1.75-12.49,5.26-17.17,3.5-4.66,8.64-7.93,15.41-9.81,5.14,19.39,10.33,36.9,15.59,52.55,5.25,15.65,11.38,29.08,18.39,40.29,4.67,7.48,9.52,12.68,14.54,15.6,5.02,2.92,11.27,4.38,18.74,4.38,2.1,0,3.15.94,3.15,2.81v25.93c0,1.86-1.05,2.8-3.15,2.8-8.88,0-16.88-1.51-24-4.56-7.13-3.03-13.37-7.35-18.75-12.96-22.66,12.38-46.48,18.57-71.47,18.57Z"/>
    <path class="cls-3" d="m5037.76,2492.33c-10.98-8.41-19.62-16.23-25.93-23.47,5.84-5.83,10.8-10.91,14.89-15.24,4.08-4.32,7.53-8,10.33-11.03,3.27,3.5,6.89,7.24,10.86,11.2,3.97,3.98,8.29,8.06,12.96,12.27-2.81,3.74-6.13,7.83-9.99,12.26-3.85,4.44-8.23,9.11-13.14,14.01Z"/>
    <path class="cls-3" d="m4934.05,2641.57c-1.87,0-2.8-.93-2.8-2.8v-25.93c0-1.86.93-2.81,2.8-2.81,20.32,0,37.84-.93,52.55-2.81,14.71-1.86,28.25-5.25,40.64-10.16,8.17-3.26,15.42-5.9,21.72-7.88,6.31-1.98,11.56-3.44,15.76-4.38-3.98-2.1-8-4.38-12.09-6.83-4.09-2.45-8.23-5.09-12.44-7.88-8.41-6.07-15.47-10.4-21.2-12.96-5.73-2.57-11.51-3.85-17.34-3.85-7.24,0-13.55,1-18.92,2.98-5.38,1.99-12.26,5.55-20.67,10.68-1.64-1.86-3.03-4.2-4.2-7-1.17-2.81-1.75-5.84-1.75-9.11,0-9.34,4.08-16.87,12.26-22.6,8.17-5.72,18.8-8.59,31.88-8.59,7.48,0,14.89,1.41,22.25,4.21,7.36,2.8,15.82,7.59,25.4,14.36,11.68,7.7,21.84,13.72,30.48,18.04,8.64,4.33,17.87,7.65,27.68,9.99,4.9,1.17,10.69,2.1,17.34,2.8,6.66.7,14.3,1.06,22.95,1.06l-14.01,26.97c-1.87-.23-4.5-.4-7.88-.52-3.39-.11-6.78-.35-10.16-.7-3.39-.35-6.36-.64-8.93-.88,2.57,3.5,5.25,6.25,8.06,8.24,2.81,1.99,6.42,3.44,10.86,4.38,4.43.7,10.45,1.28,18.04,1.75,7.59.47,16.52.7,26.8.7,2.1,0,3.15.94,3.15,2.81v25.93c0,1.86-1.05,2.8-3.15,2.8-10.28-.23-19.79-.81-28.55-1.75-8.76-.93-16.47-2.45-23.12-4.56-6.66-2.1-12.09-4.78-16.29-8.06-3.74-3.03-6.95-7.06-9.63-12.09-2.69-5.02-5.2-10.45-7.53-16.29-4.44,1.18-8.64,2.81-12.61,4.91-3.98,2.1-8.12,4.44-12.44,7.01-4.32,2.57-9.05,5.37-14.19,8.41-8.41,4.9-16.41,8.82-24,11.74-7.59,2.92-15.47,5.14-23.64,6.66-8.18,1.52-17.34,2.57-27.51,3.15-10.16.59-22.02.88-35.56.88Z"/>
    <path class="cls-3" d="m5173.34,2641.57c-1.86,0-2.8-.93-2.8-2.8v-25.93c0-1.86.94-2.81,2.8-2.81,6.31,0,12.49-.7,18.57-2.1,6.07-1.4,12.03-3.5,17.87-6.31-1.87-13.78-3.85-31.29-5.96-52.55-2.1-21.26-4.32-46.25-6.65-74.97-.7-7.48-1.4-15.18-2.1-23.12-.7-7.94-1.4-15.88-2.1-23.82,4.43-3.97,9.11-7.65,14.01-11.03,4.91-3.39,10.16-6.6,15.77-9.63.23,10.04.4,22.54.52,37.48.11,14.95.29,31.77.52,50.45.23,18.69.35,38.89.35,60.61,0,8.65.11,16.64.35,24,.23,7.36.35,14.54.35,21.54,10.27,6.31,22.65,9.46,37.14,9.46,2.1,0,3.15.94,3.15,2.81v25.93c0,1.86-1.05,2.8-3.15,2.8-17.75,0-31.53-4.2-41.34-12.61-7.48,4.44-14.78,7.66-21.9,9.63-7.13,1.99-15.59,2.98-25.4,2.98Z"/>
    <path class="cls-3" d="m5258.82,2641.57c-1.87,0-2.81-.93-2.81-2.8v-25.93c0-1.86.94-2.81,2.81-2.81,12.84,0,25.57-3.03,38.19-9.11-.7-8.17-1.4-16.29-2.1-24.35-.7-8.06-1.52-15.94-2.45-23.64-1.64-17.04-3.8-36.03-6.48-56.93-2.69-20.9-5.9-43.85-9.63-68.84,4.2-3.74,8.76-7.3,13.66-10.69,4.91-3.38,10.16-6.71,15.77-9.98.47,14.71,1.1,30.43,1.93,47.12.81,16.7,1.81,34.39,2.98,53.08.93,16.35,1.58,31.59,1.93,45.72.35,14.13.64,27.15.88,39.06,0,5.37-1.17,11.51-3.5,18.39-2.34,6.89-5.49,13.49-9.46,19.79-2.1,3.74-6.78,6.66-14.01,8.76-7.24,2.1-16.47,3.15-27.68,3.15Z"/>
    <path class="cls-3" d="m5544.7,2733.36c-20.32,0-36.03-5.9-47.12-17.69-11.09-11.79-16.64-28.55-16.64-50.27,0-4.44.23-8.82.7-13.13.47-4.33,1.23-9.23,2.28-14.71,1.05-5.49,2.51-11.97,4.38-19.45l13.67,3.51c-2.81,10.74-4.21,19.38-4.21,25.92,0,16.82,4.09,29.78,12.26,38.89,8.17,9.11,19.97,13.67,35.38,13.67,11.92,0,23.42-1.64,34.51-4.91,11.09-3.27,21.14-7.88,30.13-13.84,8.99-5.95,16.17-12.91,21.55-20.85-8.18-16.11-14.43-29.89-18.75-41.34-4.32-11.44-6.48-19.62-6.48-24.53,0-7.47,2.1-14.07,6.31-19.79,4.2-5.72,11.09-11.26,20.67-16.64.47,3.28,1.05,7.07,1.75,11.39.7,4.32,1.63,9.63,2.81,15.94,1.17,6.31,2.68,14.25,4.56,23.82,2.8.47,5.89.88,9.28,1.23,3.38.35,6.94.53,10.69.53,5.13,0,9.86-.35,14.19-1.06,4.32-.7,8.47-1.63,12.44-2.81,1.86-3.03,4.78-10.74,8.76-23.12,1.63-5.37,3.38-10.39,5.25-15.07,1.87-4.67,3.74-8.87,5.61-12.61,2.57-4.67,7.01-7,13.32-7,3.73,0,6.89.93,9.46,2.8-1.64,3.27-3.62,8.47-5.95,15.59-2.34,7.13-5.26,16.29-8.76,27.51l-3.86,12.61c2.57.93,5.14,1.64,7.71,2.1,2.57.47,5.25.7,8.06.7,6.77,0,13.78-1.17,21.02-3.51,1.17-1.63,2.56-4.49,4.2-8.58,1.63-4.08,3.62-9.51,5.95-16.29,3.27-9.11,6.07-16.52,8.41-22.25,2.33-5.72,4.56-9.28,6.66-10.68,1.4-.93,2.92-1.69,4.56-2.28,1.63-.58,3.38-.88,5.25-.88,3.5,0,6.66,1.06,9.46,3.16-2.8,7.24-5.55,14.77-8.23,22.59-2.69,7.84-5.67,16.77-8.94,26.8l5.25,2.81c5.14,2.81,10.8,4.91,16.99,6.31,6.19,1.4,12.67,2.1,19.44,2.1,2.1,0,3.15.94,3.15,2.81v25.93c0,1.86-1.05,2.8-3.15,2.8-9.11,0-18.28-1.86-27.5-5.6-9.23-3.74-16.76-8.41-22.6-14.02l-5.25,10.52c-1.17,2.33-3.57,4.2-7.18,5.6-3.62,1.4-7.77,2.51-12.44,3.33-4.67.82-9.34,1.23-14.01,1.23-9.35,0-18.8-2.81-28.38-8.41-1.64,1.64-4.73,3.15-9.28,4.56-4.56,1.4-9.52,2.4-14.89,2.98-5.38.58-10.16.88-14.37.88-2.8,0-5.43-.06-7.88-.18-2.45-.11-5.2-.4-8.23-.88v5.95c0,14.72-4.62,28.68-13.84,41.87-9.23,13.19-21.78,23.77-37.66,31.71-7.94,3.97-16.18,7.01-24.7,9.11-8.53,2.1-17.11,3.15-25.75,3.15Z"/>
    <path class="cls-3" d="m5858.95,2532.27c-5.14-3.97-9.69-7.83-13.66-11.56-3.98-3.73-7.36-7-10.16-9.81,3.5-3.51,7.18-7.18,11.04-11.03,3.86-3.86,7.88-8.24,12.09-13.14,1.63,1.87,4.2,4.61,7.71,8.24,3.5,3.62,8.06,8,13.66,13.13-2.34,3.74-5.25,7.59-8.76,11.57-3.5,3.97-7.48,8.18-11.91,12.61Zm50.45-4.91c-4.91-3.97-9.34-7.76-13.31-11.39-3.97-3.62-7.36-7.06-10.16-10.34,2.33-2.1,5.37-5.13,9.11-9.1,3.73-3.98,8.29-8.87,13.67-14.71,1.63,1.64,4.32,4.2,8.06,7.7,3.73,3.5,8.41,8.06,14.01,13.66-5.14,7.48-12.26,15.54-21.37,24.18Z"/>
    <path class="cls-3" d="m5815.86,2641.57c-1.86,0-2.8-.93-2.8-2.8v-25.93c0-1.86.94-2.81,2.8-2.81,13.31,0,24.93-.52,34.86-1.58,9.92-1.05,17.22-3.09,21.89-6.13,3.27-1.87,6.48-5.37,9.63-10.51,3.15-5.14,7.65-13.32,13.49-24.53,2.1-3.73,4.2-6.25,6.31-7.53,2.1-1.28,4.55-1.92,7.36-1.92,3.73,0,7.23,1.17,10.51,3.5-1.64,3.98-3.57,8.53-5.78,13.67-2.22,5.14-4.27,9.86-6.13,14.18-1.87,4.33-3.39,7.3-4.56,8.94,7.24,4.2,14.13,7.24,20.67,9.1,6.54,1.87,13.54,2.81,21.02,2.81,1.87,0,2.8.94,2.8,2.81v25.93c0,1.86-.93,2.8-2.8,2.8-20.32,0-38.31-7.24-53.95-21.72l-4.56,6.66c-2.57,2.81-7.42,5.38-14.54,7.71-7.13,2.33-15.59,4.15-25.4,5.43-9.81,1.28-20.09,1.92-30.83,1.92Z"/>
    <path class="cls-3" d="m5948.99,2641.57c-1.87,0-2.81-.93-2.81-2.8v-25.93c0-1.86.94-2.81,2.81-2.81,15.88,0,29.83-.7,41.86-2.1,12.03-1.4,22.48-3.03,31.36-4.91,5.84-1.16,11.38-2.68,16.64-4.56,5.25-1.86,10.1-3.97,14.54-6.31-2.1-6.07-5.43-12.14-9.99-18.21-4.56-6.07-10.1-12.02-16.64-17.87-5.37-4.67-11.74-9.45-19.09-14.36-7.36-4.91-15.83-9.81-25.4-14.71-2.8.7-5.73,1.06-8.76,1.06-6.31,0-11.62-2.16-15.94-6.49-4.32-4.32-6.48-9.75-6.48-16.29,0-2.57.35-5.83,1.05-9.81.7-3.97,1.58-7.94,2.63-11.92,1.05-3.97,2.04-7.41,2.98-10.33.93-2.92,1.75-4.5,2.45-4.73,15.41-7.94,28.73-14.66,39.94-20.15,11.21-5.48,21.37-10.27,30.48-14.36,9.11-4.08,18.04-8,26.8-11.74,8.76-3.73,18.16-7.7,28.2-11.91,3.73,3.5,5.61,8.53,5.61,15.07s-1.29,11.09-3.85,14.36c-2.58,3.27-6.66,6.19-12.26,8.76-14.25,6.08-27.62,11.79-40.11,17.17-12.5,5.37-24.35,10.33-35.56,14.89-11.21,4.56-22.31,8.94-33.28,13.14,17.74,4.43,34.56,11.62,50.45,21.54,15.88,9.93,28.49,21.08,37.83,33.46,9.58,12.38,14.37,24.17,14.37,35.38,0,18.92-10.28,33.29-30.83,43.09-10.04,4.68-22.42,8.24-37.14,10.68-14.72,2.45-32,3.68-51.85,3.68Z"/>
    <path class="cls-3" d="m6213.15,2607.24c-4.91-11.43-10.11-22.18-15.59-32.22-5.49-10.04-11.38-19.51-17.69-28.38-5.14-7.71-10.63-15.01-16.47-21.89-5.84-6.89-12.03-13.37-18.57-19.45h-12.96c-4.91-5.14-8.7-10.04-11.38-14.71-2.69-4.67-4.03-10.04-4.03-16.11s1.52-10.39,4.56-13.67c3.03-3.26,7.01-5.83,11.91-7.7,7.47,4.67,14.65,10.75,21.55,18.21,6.89,7.48,13.49,15.65,19.79,24.53,6.53,8.87,12.44,18.1,17.69,27.68,5.26,9.58,9.75,18.8,13.49,27.68,1.63,3.74,3.62,8.7,5.95,14.89,2.33,6.19,4.61,12.44,6.83,18.75,2.22,6.31,4.03,11.68,5.43,16.11l-10.51,6.31Z"/>
    <path class="cls-3" d="m6132.22,2642.27l-1.4-13.31c13.08-3.26,24.76-6.42,35.03-9.45,10.28-3.03,19.39-6.42,27.33-10.17,7.94-3.73,15.01-8.06,21.2-12.96,6.18-4.9,11.61-10.74,16.29-17.51,5.37-7.48,9.92-16.47,13.66-26.98,3.73-10.51,6.77-22.18,9.11-35.03,2.57-13.08,4.49-27.1,5.78-42.04,1.28-14.95,2.04-30.71,2.28-47.3,5.14-4.43,9.86-8.24,14.19-11.39,4.32-3.16,8.93-6.36,13.84-9.63.23,6.08.47,12.73.7,19.96.23,7.25.41,14.84.53,22.78.11,7.94.23,15.88.35,23.82.12,7.95.23,15.42.35,22.43.11,7.01.29,13.43.53,19.27.23,8.65.4,16.87.52,24.7.11,7.83.18,15.29.18,22.42s.11,13.84.35,20.14c.23,6.31.47,12.5.7,18.57,2.1,1.41,4.38,2.63,6.83,3.68,2.45,1.06,5.08,2.05,7.88,2.98,3.27.7,6.71,1.35,10.33,1.93,3.62.59,7.65.88,12.09.88,1.87,0,2.8.94,2.8,2.81v25.93c0,1.86-.93,2.8-2.8,2.8-8.18,0-16-1.05-23.47-3.15-7.48-2.1-13.66-5.43-18.57-9.99-4.9-4.56-7.94-10.45-9.11-17.69-1.4-10.28-2.57-20.37-3.5-30.31-.93-9.92-1.75-19.67-2.45-29.25,0-3.27-.23-7.94-.7-14.02-.47-6.07-.88-12.32-1.22-18.74-.35-6.43-.76-11.62-1.23-15.6-.7,7.71-1.52,15.07-2.45,22.07-.94,7.01-1.81,13.67-2.63,19.97-.82,6.31-1.75,12.15-2.8,17.51-1.05,5.38-2.16,10.17-3.33,14.37-2.57,7.94-5.25,15.12-8.06,21.54-2.81,6.43-5.96,12.09-9.46,17-9.34,13.08-21.25,20.55-35.73,22.42-13.31,1.4-25.8,2.45-37.49,3.16-11.68.7-23.82,1.17-36.43,1.4Z"/>
    <path class="cls-3" d="m6334.72,2641.57c-1.87,0-2.81-.93-2.81-2.8v-25.93c0-1.86.94-2.81,2.81-2.81,29.19,0,53.6-2.33,73.22-7.01,11.44-2.33,21.83-5.95,31.18-10.86-2.34-6.76-6.13-13.49-11.39-20.14-5.25-6.65-11.62-13.01-19.09-19.09-5.37-4.43-11.39-8.82-18.04-13.13-6.66-4.33-14.19-8.59-22.6-12.79-10.75-5.6-18.74-10.86-24-15.77-5.25-4.9-7.88-10.27-7.88-16.11,0-4.67.76-8.82,2.28-12.44,1.52-3.62,3.56-6.71,6.13-9.28,1.87-1.86,5.55-4.26,11.04-7.18,5.48-2.92,12.49-6.42,21.02-10.51,8.53-4.08,18.22-8.52,29.08-13.31,10.86-4.78,22.71-9.86,35.56-15.24,12.84-5.37,26.39-10.98,40.64-16.82,3.97,3.97,5.96,8.87,5.96,14.71s-1.4,10.28-4.2,14.01c-2.81,3.74-6.78,6.78-11.91,9.11-11.91,5.14-23.82,10.22-35.74,15.24-11.91,5.03-24.35,10.11-37.31,15.25s-27.15,10.63-42.56,16.46c16.82,4.44,32.81,11.38,47.99,20.85,15.18,9.45,27.21,20.38,36.08,32.76,9.58,12.61,14.37,24.41,14.37,35.38,0,4.2-.47,7.71-1.4,10.51,13.54,10.28,28.96,15.42,46.25,15.42,2.1,0,3.15.94,3.15,2.81v25.93c0,1.86-1.05,2.8-3.15,2.8-10.98,0-21.43-2.1-31.36-6.31-9.93-4.2-18.98-10.62-27.15-19.27-1.87,1.64-3.97,3.27-6.31,4.91-2.34,1.64-4.91,3.27-7.71,4.91-19.85,10.51-50.57,15.76-92.14,15.76Z"/>
    <path class="cls-3" d="m6576.1,2642.63c-6.31,0-13.43-.99-21.37-2.98-7.95-1.99-14.72-4.61-20.32-7.88-3.74,2.81-9.05,5.14-15.94,7.01-6.89,1.86-14.19,2.8-21.9,2.8-1.86,0-2.8-.93-2.8-2.8v-25.93c0-1.86.94-2.81,2.8-2.81,7.94,0,14.24-.64,18.92-1.93,4.67-1.28,8.76-3.44,12.26-6.48,3.5-3.03,6.31-6.18,8.41-9.46,2.1-3.26,5.37-8.64,9.81-16.11,1.4-2.1,3.09-3.73,5.08-4.91,1.98-1.16,4.38-1.75,7.18-1.75,3.27,0,6.31.94,9.11,2.81-3.28,8.18-6.19,15.18-8.76,21.02-2.57,5.84-4.67,10.63-6.31,14.36,2.33.7,5.95,1.46,10.86,2.28,4.9.82,10.27,1.23,16.12,1.23,5.13,0,9.69-.29,13.66-.88,3.97-.57,8.29-1.57,12.96-2.98,1.64-2.33,3.39-6.18,5.26-11.56,1.86-5.37,3.91-11.33,6.13-17.87,2.22-6.53,4.38-12.37,6.48-17.52,1.63-4.2,3.62-7.06,5.95-8.58,2.33-1.51,5.37-2.27,9.11-2.27s6.89.93,9.46,2.8c-1.4,3.74-3.57,9.93-6.48,18.57-2.92,8.65-6.83,21.03-11.74,37.14,2.8.93,5.31,1.64,7.53,2.1,2.22.47,4.84.7,7.88.7,6.77,0,13.89-1.17,21.37-3.51.93-1.4,2.16-3.97,3.68-7.7,1.52-3.73,3.33-8.87,5.43-15.42,1.86-5.14,3.85-10.33,5.95-15.59,2.1-5.25,4.2-10.22,6.31-14.89,1.17-2.34,2.92-4.15,5.25-5.43,2.33-1.28,5.02-1.93,8.06-1.93,3.5,0,6.65,1.06,9.46,3.16-1.64,3.74-3.8,9.51-6.48,17.34-2.69,7.83-6.25,18.51-10.69,32.05,7.24,3.97,13.95,6.84,20.14,8.59,6.19,1.75,13.49,2.63,21.89,2.63,1.87,0,2.81.94,2.81,2.81v25.93c0,1.86-.94,2.8-2.81,2.8-9.34,0-18.63-1.86-27.85-5.6-9.23-3.74-16.76-8.41-22.6-14.02-1.17,2.81-2.34,5.32-3.5,7.53-1.17,2.22-3.27,4.15-6.31,5.78-2.1,2.34-5.95,4.15-11.56,5.43-5.61,1.28-11.45,1.93-17.52,1.93-9.34,0-18.69-2.81-28.02-8.41-1.87,1.87-5.2,3.44-9.99,4.73-4.79,1.28-10.1,2.16-15.94,2.63-5.84.47-11.33.83-16.47,1.06Z"/>
    <path class="cls-3" d="m6775.8,2712.69c-5.14-3.98-9.7-7.83-13.66-11.56-3.97-3.74-7.36-7.01-10.16-9.81,3.5-3.51,7.18-7.18,11.03-11.04,3.85-3.85,7.88-8.23,12.09-13.13,1.63,1.86,4.2,4.61,7.7,8.24,3.5,3.61,8.06,8,13.67,13.13-2.34,3.73-5.25,7.59-8.76,11.56-3.5,3.97-7.48,8.17-11.91,12.61Zm50.45-4.91c-4.91-3.98-9.34-7.77-13.31-11.38-3.98-3.62-7.36-7.07-10.16-10.34,2.33-2.1,5.37-5.14,9.11-9.11,3.73-3.97,8.29-8.87,13.66-14.71,1.63,1.64,4.32,4.2,8.06,7.71,3.73,3.5,8.41,8.06,14.01,13.66-5.14,7.48-12.26,15.53-21.37,24.18Z"/>
    <path class="cls-3" d="m6732.71,2641.57c-1.87,0-2.81-.93-2.81-2.8v-25.93c0-1.86.94-2.81,2.81-2.81,13.31,0,24.93-.52,34.86-1.58,9.93-1.05,17.22-3.09,21.89-6.13,3.27-1.87,6.48-5.37,9.63-10.51,3.15-5.14,7.65-13.32,13.49-24.53,2.1-3.73,4.2-6.25,6.31-7.53,2.1-1.28,4.56-1.92,7.36-1.92,3.73,0,7.23,1.17,10.51,3.5-1.64,3.98-3.57,8.53-5.78,13.67-2.22,5.14-4.26,9.86-6.13,14.18-1.87,4.33-3.39,7.3-4.56,8.94,7.24,4.2,14.13,7.24,20.67,9.1,6.53,1.87,13.54,2.81,21.02,2.81,1.86,0,2.81.94,2.81,2.81v25.93c0,1.86-.94,2.8-2.81,2.8-20.32,0-38.31-7.24-53.95-21.72l-4.56,6.66c-2.57,2.81-7.42,5.38-14.54,7.71-7.13,2.33-15.59,4.15-25.4,5.43-9.81,1.28-20.09,1.92-30.83,1.92Z"/>
    <path class="cls-3" d="m6934.85,2460.09c-10.98-8.41-19.62-16.23-25.93-23.47,5.84-5.83,10.8-10.91,14.89-15.24,4.09-4.32,7.53-8,10.33-11.03,3.27,3.5,6.89,7.24,10.86,11.2,3.97,3.97,8.29,8.06,12.96,12.27-2.81,3.74-6.13,7.83-9.99,12.26-3.85,4.44-8.23,9.11-13.14,14.01Z"/>
    <path class="cls-3" d="m6866.19,2641.57c-2.1,0-3.15-1.05-3.15-3.15v-25.22c0-2.1,1.05-3.16,3.15-3.16,25.46,0,46.95-1.28,64.46-3.85,17.52-2.57,33.39-7.12,47.65-13.67-.47-3.5-1.05-7.12-1.75-10.86-.7-3.73-1.64-7.58-2.8-11.56-6.54,5.6-13.84,9.99-21.89,13.14-8.06,3.16-16.29,4.73-24.7,4.73-11.45,0-20.44-3.79-26.98-11.39-6.54-7.58-9.81-16.99-9.81-28.2,0-11.91,2.1-23,6.31-33.28,4.2-10.28,9.57-18.34,16.11-24.18,3.5-3.03,7.18-5.37,11.04-7.01,3.86-1.63,7.76-2.45,11.74-2.45,11.44,0,21.78,4.68,31.01,14.02,9.22,9.34,16.52,22.07,21.89,38.19,2.34,7.48,4.15,15.36,5.43,23.64,1.28,8.29,1.93,16.88,1.93,25.75,0,2.34-.12,5.73-.35,10.16-.24,4.44-1.23,8.93-2.98,13.49-1.75,4.56-4.61,8.47-8.58,11.74-5.38,3.5-13.67,7.07-24.88,10.69-11.21,3.62-24.65,6.6-40.29,8.93-15.65,2.34-33.17,3.5-52.55,3.5Zm67.97-79.87c10.74,0,22.19-2.45,34.33-7.36-4.44-13.08-9.93-22.88-16.46-29.43-6.54-6.53-14.01-9.81-22.43-9.81-7.01,0-12.78,2.75-17.34,8.23-4.56,5.5-6.83,11.62-6.83,18.39s2.28,11.79,6.83,15.07c4.56,3.27,11.85,4.91,21.89,4.91Z"/>
  </g>
  <path class="cls-2" d="m376.16,2983.37l22.54-796.92,217.82,187.72,1260.91-557.84-11.95,507.37-1489.32,659.67Zm1477.81-1362.29l9.3-507.37-943.02,419.71-15.94,510.03,949.66-422.37ZM2398.98,158.28L917.59,813.97l-13.28,508.26,1259.13-556.52,217.82,191.26,17.71-798.69Z"/>
</svg>